<svg xmlns="http://www.w3.org/2000/svg" width="17.126" height="17.126" viewBox="0 0 17.126 17.126">
  <g id="Group_278" data-name="Group 278" transform="translate(-1216 152)">
    <path id="Rectangle_136" data-name="Rectangle 136" d="M0,0H7.9a0,0,0,0,1,0,0V4.9a3,3,0,0,1-3,3H0a0,0,0,0,1,0,0V0A0,0,0,0,1,0,0Z" transform="translate(1216 -152)" fill="#747474"/>
    <path id="Rectangle_137" data-name="Rectangle 137" d="M0,0H7.9a0,0,0,0,1,0,0V7.9a0,0,0,0,1,0,0H3a3,3,0,0,1-3-3V0A0,0,0,0,1,0,0Z" transform="translate(1225.222 -152)" fill="#747474"/>
    <path id="Rectangle_138" data-name="Rectangle 138" d="M3,0H7.9a0,0,0,0,1,0,0V7.9a0,0,0,0,1,0,0H0a0,0,0,0,1,0,0V3A3,3,0,0,1,3,0Z" transform="translate(1225.222 -142.778)" fill="#747474"/>
    <path id="Rectangle_139" data-name="Rectangle 139" d="M0,0H4.9a3,3,0,0,1,3,3V7.9a0,0,0,0,1,0,0H0a0,0,0,0,1,0,0V0A0,0,0,0,1,0,0Z" transform="translate(1216 -142.778)" fill="#747474"/>
  </g>
</svg>
