<svg xmlns="http://www.w3.org/2000/svg" width="24" height="24" viewBox="0 0 24 24">
  <g id="Group_215" data-name="Group 215" transform="translate(0)">
    <path id="Path_68" data-name="Path 68" d="M317.9,552.9h24v24h-24Z" transform="translate(-317.9 -552.9)" fill="none"/>
    <path id="Path_69" data-name="Path 69" d="M330.1,560.1a3.8,3.8,0,0,0-3.8,3.8c0,3,3.8,6.5,3.8,6.5s3.8-3.5,3.8-6.5A3.8,3.8,0,0,0,330.1,560.1Zm0,5.3a1.5,1.5,0,1,1,1.5-1.5A1.473,1.473,0,0,1,330.1,565.4Zm0-10.5a10,10,0,1,0,10,10A10.029,10.029,0,0,0,330.1,554.9Zm0,18a8,8,0,1,1,8-8A8.024,8.024,0,0,1,330.1,572.9Z" transform="translate(-317.9 -552.9)" fill="#49c551"/>
  </g>
</svg>
